<?xml version="1.0" encoding="utf-8"?><svg id="Layer_1" data-name="Layer 1" xmlns="http://www.w3.org/2000/svg" viewBox="0 0 605.95 194.56"><defs><style>.cls-1{fill:#00334c;}.cls-2{fill:#52ac78;}</style></defs><title>Artboard 1</title><path class="cls-1" d="M93.16,35.4H79.58c-12.77,0-18.9,9.05-18.9,23.69V67.6h25V96.88h-25v95H23.42v-95H0V67.6H23.42V59.09C23.42,21,43.92,0,79.58,0H93.16Z"/><path class="cls-1" d="M122.7,11c12.51,0,22.62,9.32,22.62,21.56S135.21,54.38,122.7,54.38,99.54,44.8,99.54,32.56,110.19,11,122.7,11Zm18.36,180.9H104.33V67.6h36.73Z"/><path class="cls-1" d="M197.48,191.9h-37V67.6h37V85.7c6.65-12.51,21.29-20.76,35.93-20.76,28,0,45.51,17.3,45.51,52.7V191.9h-37V125.63c0-16.5-9.05-24.76-21.56-24.76-13,0-22.89,6.39-22.89,25.29Z"/><path class="cls-2" d="M367.48,177.79c-8,12-26.61,16.51-36.2,16.51-31.67,0-63.34-24.76-63.34-64.68s31.67-64.68,63.34-64.68c8,0,26.62,2.66,36.2,16.5V67.6h36.73V191.9H367.48Zm-30.07-18.63c15.17,0,30.07-10.91,30.07-29.54s-14.9-29.54-30.07-29.54c-15.44,0-31.14,11.71-31.14,29.54S322,159.16,337.41,159.16Z"/><path class="cls-2" d="M442,11c12.51,0,22.62,9.32,22.62,21.56S454.51,54.38,442,54.38s-23.15-9.58-23.15-21.82S429.49,11,442,11Zm18.37,180.9H423.64V67.6h36.73Z"/><path class="cls-2" d="M569.22,191.9V176.46c-6.12,11.45-21,18.1-36.47,18.1-31.94,0-60.15-25.28-60.15-64.41,0-39.92,28.21-65.21,60.15-65.21,15.44,0,30.35,6.39,36.47,17.84V0H606V191.9ZM539.67,99.81c-15.7,0-28.74,11.71-28.74,29.54,0,18.37,13,30.08,28.74,30.08,15.44,0,28.75-12.24,28.75-30.08C568.42,110.72,554.84,99.81,539.67,99.81Z"/></svg>